<svg class="hy-vee-logo" focusable="false" tabindex="-1" viewBox="0 0 150 52" xmlns="http://www.w3.org/2000/svg">
  <path fill="red" d="M.0714285714.714285714L10.9285714.714285714 10.9285714 9.21428571 15.8571429 9.21428571 15.8571429.714285714 27 .714285714 27 28.2857143C27 28.2857143 27.7142857 34.4285714 25 37.9285714 21.7142857 42 15.7857143 41.4285714 15.7857143 41.4285714L15.7857143 12.9285714 10.8571429 12.9285714 10.8571429 41.4285714C10.8571429 41.4285714 6.85714286 42.0714286 2.64285714 38.6428571-.571428571 36 .0714285714 28.2857143.0714285714 28.2857143L.0714285714.714285714.0714285714.714285714zM110 40.9285714L110 36.2857143 104.071429 36.2857143C104.071429 36.2857143 102.928571 36.6428571 101.857143 35.5714286 100.714286 34.5 100.928571 32.0714286 100.928571 32.0714286L100.928571 14.1428571C100.928571 14.1428571 100.928571 12.2857143 102.785714 12.2142857 104.928571 12.1428571 105.285714 14.1428571 105.285714 14.1428571L105.285714 28.1428571C104.857143 31 102.428571 32.1428571 102.428571 32.1428571 102.428571 32.1428571 110.142857 32.7142857 112.428571 31.2142857 115.357143 29.2142857 115.428571 25.9285714 115.428571 25.9285714L115.428571 18.5714286C115.428571 15.5714286 114.285714 13.4285714 112.142857 11.5714286 109.357143 9.21428571 106.642857 9.07142857 103.785714 9 102.071429 8.92857143 96.0714286 8.92857143 93.0714286 12.5714286 90.7142857 15.4285714 90.5 18.5714286 90.5 18.5714286L90.5 30.5714286C90.5 30.5714286 90.5 34.1428571 93.1428571 37.1428571 96.8571429 41.3571429 100.928571 41 100.928571 41L110 41 110 40.9285714zM82.4285714.714285714L72.0714286 32.5 72.0714286.714285714 61.7857143.714285714 61.7857143 19.5C63.3571429 20.2857143 64.4285714 21.8571429 64.4285714 23.7142857 64.4285714 25.5714286 63.3571429 27.1428571 61.7857143 27.9285714L61.7857143 40.9285714 64.3571429 40.9285714C72.0714286 40.9285714 75.2857143 41.3571429 79.5 36.9285714 81 35.3571429 82.3571429 32.0714286 82.3571429 32.0714286L94.5.642857143 82.4285714.642857143 82.4285714.714285714zM55 23.7142857C55 21.9285714 56 20.4285714 57.4285714 19.6428571L57.4285714 9.28571429 47.0714286 9.28571429 47.0714286 37.3571429C47.0714286 37.3571429 43.6428571 37.6428571 42.9285714 36.4285714 42.2142857 35.2142857 42.3571429 32.1428571 42.3571429 32.1428571L42.3571429 9.28571429 31.3571429 9.28571429 31.3571429 32.2142857C31.3571429 32.2142857 31.7142857 36.5 33.8571429 38.5714286 36.7857143 41.4285714 40.8571429 41.0714286 40.8571429 41.0714286L47 41.0714286 47 51.7142857 57.3571429 51.7142857 57.3571429 27.8571429C56 27 55 25.5 55 23.7142857zM137.785714 40.9285714L137.785714 36.2857143 131.857143 36.2857143C131.857143 36.2857143 130.714286 36.6428571 129.642857 35.5714286 128.5 34.5 128.714286 32.0714286 128.714286 32.0714286L128.714286 14.0714286C128.714286 14.0714286 128.714286 12.2142857 130.571429 12.1428571 132.714286 12.0714286 133.071429 14.0714286 133.071429 14.0714286L133.071429 28.0714286C132.642857 30.9285714 130.214286 32.0714286 130.214286 32.0714286 130.214286 32.0714286 137.928571 32.6428571 140.214286 31.1428571 143.142857 29.1428571 143.214286 25.8571429 143.214286 25.8571429L143.214286 18.5C143.214286 15.5 142.071429 13.3571429 139.928571 11.5 137.142857 9.14285714 134.428571 9 131.571429 8.92857143 129.857143 8.85714286 123.857143 8.85714286 120.857143 12.5 118.5 15.3571429 118.285714 18.5 118.285714 18.5L118.285714 30.5C118.285714 30.5 118.285714 34.0714286 120.928571 37.0714286 124.642857 41.2857143 128.714286 40.9285714 128.714286 40.9285714L137.785714 40.9285714 137.785714 40.9285714zM144.571426 35.9285714C144.071426 36.4285714 143.785712 37.0714286 143.785712 37.8571429 143.785712 38.6428571 144.071426 39.2857143 144.571426 39.7857143 145.071426 40.2857143 145.714284 40.5714286 146.499998 40.5714286 147.285712 40.5714286 147.857141 40.2857143 148.428569 39.7857143 148.928569 39.2857143 149.214284 38.6428571 149.214284 37.8571429 149.214284 37.1428571 148.928569 36.5 148.428569 35.9285714 147.928569 35.4285714 147.285712 35.1428571 146.499998 35.1428571 145.714284 35.1428571 145.142855 35.4285714 144.571426 35.9285714zM148.714284 40.1428571C148.071426 40.7857143 147.357141 41.0714286 146.499998 41.0714286 145.642855 41.0714286 144.857141 40.7857143 144.285712 40.1428571 143.642855 39.5 143.357141 38.7857143 143.357141 37.9285714 143.357141 37.0714286 143.642855 36.3571429 144.285712 35.7142857 144.928569 35.0714286 145.642855 34.7857143 146.499998 34.7857143 147.357141 34.7857143 148.142855 35.0714286 148.714284 35.7142857 149.357141 36.3571429 149.642855 37.0714286 149.642855 37.9285714 149.642855 38.7142857 149.357141 39.5 148.714284 40.1428571zM147.071426 36.7142857C146.928569 36.6428571 146.642855 36.5714286 146.357141 36.5714286L145.857141 36.5714286 145.857141 37.8571429 146.428569 37.8571429C146.714284 37.8571429 146.857141 37.8571429 146.999998 37.7857143 147.214284 37.7142857 147.357141 37.5 147.357141 37.2142857 147.285712 36.9285714 147.214284 36.7857143 147.071426 36.7142857zM146.428569 36.1428571C146.857141 36.1428571 147.142855 36.2142857 147.357141 36.2857143 147.714284 36.4285714 147.857141 36.7142857 147.928569 37.1428571 147.928569 37.4285714 147.785712 37.7142857 147.571426 37.8571429 147.428569 37.9285714 147.285712 38 147.071426 38 147.357141 38.0714286 147.571426 38.1428571 147.642855 38.3571429 147.785712 38.5714286 147.857141 38.7142857 147.857141 38.9285714L147.857141 39.2142857 147.857141 39.5 147.857141 39.7142857 147.857141 39.7857143 147.285712 39.7857143 147.285712 39.7857143C147.285712 39.7857143 147.285712 39.7857143 147.285712 39.7142857L147.285712 39.5714286 147.285712 39.2857143C147.285712 38.8571429 147.142855 38.6428571 146.928569 38.5 146.785712 38.4285714 146.571426 38.3571429 146.285712 38.3571429L145.785712 38.3571429 145.785712 39.7142857 145.142855 39.7142857 145.142855 36.2857143 146.428569 36.2857143 146.428569 36.1428571z">
  </path>
</svg>
