<svg xmlns="http://www.w3.org/2000/svg" viewBox="0 0 219.79 24.01">
	<title>Intouch Solutions</title>
	<path fill="#b2d236" d="M97.31,18a3.1,3.1,0,1,0,3.08,3.1A3.1,3.1,0,0,0,97.31,18Zm1.15,3.1A1.16,1.16,0,1,1,97.31,20,1.16,1.16,0,0,1,98.46,21.12Z" transform="translate(0 -0.19)"></path>
	<path fill="#b2d236" d="M97.31,6.37a3.09,3.09,0,1,0-3.1-3.09A3.08,3.08,0,0,0,97.31,6.37ZM96.15,3.28a1.16,1.16,0,1,1,1.16,1.16A1.16,1.16,0,0,1,96.15,3.28Z" transform="translate(0 -0.19)"></path>
	<polygon fill="#b2d236" points="101.8 14.18 115.99 8.7 116.08 8.66 116.08 1.85 98.55 8.62 98.47 8.66 98.47 11.13 114.08 5.09 114.08 6.96 98.55 12.97 98.47 13 98.47 15.37 115.89 22.09 116.08 22.16 116.08 15.22 109.96 12.86 109.91 12.84 106.71 14.08 114.08 16.93 114.08 18.92 101.8 14.18"></polygon>
	<polygon fill="#b2d236" points="96.2 15.37 96.2 13 80.59 6.96 80.59 5.09 96.02 11.06 96.2 11.13 96.2 8.66 78.78 1.92 78.59 1.85 78.59 8.66 92.86 14.18 80.59 18.92 80.59 16.93 87.96 14.08 84.76 12.84 78.68 15.19 78.59 15.22 78.59 22.16 96.11 15.4 96.2 15.37"></polygon>
	<path fill="#ffffff" d="M218.72,9.36a1.09,1.09,0,1,1,1.07-1.09A1.05,1.05,0,0,1,218.72,9.36Zm0-2a.85.85,0,0,0-.84.9.84.84,0,1,0,1.68,0A.85.85,0,0,0,218.72,7.37ZM218.5,8.9h-.2V7.69h.47c.29,0,.44.1.44.34a.31.31,0,0,1-.32.33l.34.54H219l-.32-.52h-.19Zm.23-.69c.15,0,.28,0,.28-.19s-.15-.17-.27-.17h-.24v.36Z" transform="translate(0 -0.19)"></path>
	<path fill="#ffffff" d="M0,15V7.26H1.51V15Z" transform="translate(0 -0.19)"></path>
	<path fill="#ffffff" d="M7.93,10.05v5H6.42V7.25H7.59l4.06,5.11V7.26h1.51V15H11.93Z" transform="translate(0 -0.19)"></path>
	<path fill="#ffffff" d="M23.89,8.58H21.41V15H19.9V8.58H17.41V7.25h6.48Z" transform="translate(0 -0.19)"></path>
	<path fill="#ffffff" d="M31.14,15.09a3.32,3.32,0,0,1-1.51-.34,3.75,3.75,0,0,1-1.16-.88,3.88,3.88,0,0,1-.75-1.27,4.1,4.1,0,0,1-.27-1.46,4.19,4.19,0,0,1,.28-1.49,4.3,4.3,0,0,1,.78-1.26,3.93,3.93,0,0,1,1.18-.87,3.31,3.31,0,0,1,1.48-.32,3.24,3.24,0,0,1,1.5.34,3.69,3.69,0,0,1,1.16.91,4.14,4.14,0,0,1,.75,1.27,4.21,4.21,0,0,1,.26,1.44,4,4,0,0,1-.28,1.49,4.09,4.09,0,0,1-.77,1.25,3.63,3.63,0,0,1-1.18.86A3.3,3.3,0,0,1,31.14,15.09ZM29,11.14a3.57,3.57,0,0,0,.14,1,2.84,2.84,0,0,0,.43.83,2.14,2.14,0,0,0,.69.58,1.84,1.84,0,0,0,.92.22,1.82,1.82,0,0,0,.92-.22,2.17,2.17,0,0,0,.68-.6,2.74,2.74,0,0,0,.41-.84,3.09,3.09,0,0,0,.15-.95,2.9,2.9,0,0,0-.16-1,2.57,2.57,0,0,0-.43-.84,2.07,2.07,0,0,0-.68-.57,1.93,1.93,0,0,0-.9-.22,1.89,1.89,0,0,0-.93.23,2.27,2.27,0,0,0-.68.59,2.5,2.5,0,0,0-.42.83A3.13,3.13,0,0,0,29,11.14Z" transform="translate(0 -0.19)"></path>
	<path fill="#ffffff" d="M42.58,13.75a1.69,1.69,0,0,0,.9-.22,1.61,1.61,0,0,0,.59-.57,2.28,2.28,0,0,0,.32-.8,4.91,4.91,0,0,0,.09-.94v-4H46v4a5.6,5.6,0,0,1-.2,1.5,3.36,3.36,0,0,1-.6,1.23,2.83,2.83,0,0,1-1.06.83,3.47,3.47,0,0,1-1.54.31A3.52,3.52,0,0,1,41,14.76a2.94,2.94,0,0,1-1-.85,3.43,3.43,0,0,1-.59-1.23,5.9,5.9,0,0,1-.18-1.46v-4h1.51v4a4.25,4.25,0,0,0,.1.95,2.27,2.27,0,0,0,.31.8,1.79,1.79,0,0,0,.59.57A1.75,1.75,0,0,0,42.58,13.75Z" transform="translate(0 -0.19)"></path>
	<path fill="#ffffff" d="M50.32,11.09a4,4,0,0,1,.26-1.41,3.69,3.69,0,0,1,.73-1.24,3.43,3.43,0,0,1,1.16-.89,3.5,3.5,0,0,1,1.58-.34,3.26,3.26,0,0,1,1.8.47A2.85,2.85,0,0,1,57,8.91l-1.16.8a2,2,0,0,0-.34-.56A1.65,1.65,0,0,0,55,8.8a2.25,2.25,0,0,0-.51-.2,3,3,0,0,0-.5-.06,1.94,1.94,0,0,0-.95.23,2.28,2.28,0,0,0-.67.6,2.86,2.86,0,0,0-.41.84,3.25,3.25,0,0,0-.13.92,3,3,0,0,0,.16,1,2.43,2.43,0,0,0,.45.84,2.14,2.14,0,0,0,.69.58,1.81,1.81,0,0,0,.89.22,2.37,2.37,0,0,0,.52-.06,2.41,2.41,0,0,0,.5-.21,2,2,0,0,0,.46-.37,1.84,1.84,0,0,0,.34-.54l1.24.71a2.35,2.35,0,0,1-.51.77,3.51,3.51,0,0,1-.76.57,4.3,4.3,0,0,1-.9.35,3.83,3.83,0,0,1-.93.12,3.24,3.24,0,0,1-1.49-.35,3.87,3.87,0,0,1-1.16-.92,4,4,0,0,1-.76-1.28A4.14,4.14,0,0,1,50.32,11.09Z" transform="translate(0 -0.19)"></path>
	<path fill="#ffffff" d="M68,7.25V15h-1.5V11.71H62.93V15H61.42V7.25h1.51V10.4h3.53V7.25Z" transform="translate(0 -0.19)"></path>
	<path fill="#ffffff" d="M131.57,9.29l-.28-.21a3.81,3.81,0,0,0-.5-.26,4.65,4.65,0,0,0-.63-.21,2.61,2.61,0,0,0-.69-.09,1.57,1.57,0,0,0-.93.23.79.79,0,0,0-.31.65.65.65,0,0,0,.12.4,1,1,0,0,0,.33.28,3.11,3.11,0,0,0,.56.22l.77.21a9.85,9.85,0,0,1,1,.33,2.64,2.64,0,0,1,.78.43,1.77,1.77,0,0,1,.5.63,2.08,2.08,0,0,1,.18.91,2.25,2.25,0,0,1-.24,1.07,1.88,1.88,0,0,1-.63.71,2.48,2.48,0,0,1-.92.4,4.34,4.34,0,0,1-1.09.13,6.06,6.06,0,0,1-1.74-.26,5.45,5.45,0,0,1-1.53-.75l.67-1.3a2.39,2.39,0,0,0,.35.26c.18.1.38.21.61.31a4.47,4.47,0,0,0,.78.27,3.72,3.72,0,0,0,.88.11c.83,0,1.25-.27,1.25-.8a.67.67,0,0,0-.15-.44,1.08,1.08,0,0,0-.4-.3,3.59,3.59,0,0,0-.64-.24c-.24-.08-.52-.15-.83-.24a6.82,6.82,0,0,1-1-.33,2.63,2.63,0,0,1-.68-.42,1.57,1.57,0,0,1-.42-.57,2.06,2.06,0,0,1-.13-.78,2.38,2.38,0,0,1,.22-1.05,2.09,2.09,0,0,1,.61-.77,2.64,2.64,0,0,1,.9-.46,3.59,3.59,0,0,1,1.11-.16,4.31,4.31,0,0,1,1.51.25,6.11,6.11,0,0,1,1.2.61Z" transform="translate(0 -0.19)"></path>
	<path fill="#ffffff" d="M140.18,15.09a3.24,3.24,0,0,1-1.5-.34,3.79,3.79,0,0,1-1.17-.88,4.26,4.26,0,0,1-.75-1.27,4.32,4.32,0,0,1-.26-1.46,4,4,0,0,1,.28-1.49,3.83,3.83,0,0,1,1.95-2.13,3.37,3.37,0,0,1,1.48-.32,3.24,3.24,0,0,1,1.5.34,3.73,3.73,0,0,1,1.17.91,3.93,3.93,0,0,1,.74,1.27,4,4,0,0,1,.26,1.44,4,4,0,0,1-1,2.74,3.7,3.7,0,0,1-1.17.86A3.34,3.34,0,0,1,140.18,15.09ZM138,11.14a3.24,3.24,0,0,0,.15,1,2.62,2.62,0,0,0,.43.83,2,2,0,0,0,.68.58,2.05,2.05,0,0,0,1.85,0,2.13,2.13,0,0,0,.67-.6,3,3,0,0,0,.42-.84,3.41,3.41,0,0,0,.14-.95,3.17,3.17,0,0,0-.15-1,2.79,2.79,0,0,0-.44-.84,2,2,0,0,0-.67-.57,1.94,1.94,0,0,0-.91-.22,1.82,1.82,0,0,0-.92.23,2.15,2.15,0,0,0-.68.59,2.73,2.73,0,0,0-.43.83A3.47,3.47,0,0,0,138,11.14Z" transform="translate(0 -0.19)"></path>
	<path fill="#ffffff" d="M148.35,15V7.25h1.51v6.46h4V15Z" transform="translate(0 -0.19)"></path>
	<path fill="#ffffff" d="M161.05,13.75a1.69,1.69,0,0,0,.9-.22,1.61,1.61,0,0,0,.59-.57,2.28,2.28,0,0,0,.32-.8,4.91,4.91,0,0,0,.09-.94v-4h1.5v4a5.61,5.61,0,0,1-.19,1.5,3.53,3.53,0,0,1-.6,1.23,2.83,2.83,0,0,1-1.06.83,3.47,3.47,0,0,1-1.54.31,3.52,3.52,0,0,1-1.59-.33,2.94,2.94,0,0,1-1.05-.85,3.43,3.43,0,0,1-.59-1.23,5.9,5.9,0,0,1-.18-1.46v-4h1.51v4a4.94,4.94,0,0,0,.09.95,2.48,2.48,0,0,0,.32.8,1.79,1.79,0,0,0,.59.57A1.75,1.75,0,0,0,161.05,13.75Z" transform="translate(0 -0.19)"></path>
	<path fill="#ffffff" d="M175.07,8.58H172.6V15h-1.52V8.58H168.6V7.25h6.47Z" transform="translate(0 -0.19)"></path>
	<path fill="#ffffff" d="M179.34,15V7.26h1.51V15Z" transform="translate(0 -0.19)"></path>
	<path fill="#ffffff" d="M189,15.09a3.27,3.27,0,0,1-1.5-.34,3.92,3.92,0,0,1-1.17-.88,4.26,4.26,0,0,1-.75-1.27,4.32,4.32,0,0,1-.26-1.46,4,4,0,0,1,.28-1.49,4.3,4.3,0,0,1,.78-1.26,3.81,3.81,0,0,1,1.18-.87,3.53,3.53,0,0,1,3,0,3.69,3.69,0,0,1,1.16.91,3.93,3.93,0,0,1,.74,1.27,4,4,0,0,1,.27,1.44,4.15,4.15,0,0,1-.28,1.49,4.3,4.3,0,0,1-.77,1.25,3.63,3.63,0,0,1-1.18.86A3.31,3.31,0,0,1,189,15.09Zm-2.16-3.95a3.24,3.24,0,0,0,.15,1,2.62,2.62,0,0,0,.43.83,2.1,2.1,0,0,0,.68.58,2.05,2.05,0,0,0,1.85,0,2,2,0,0,0,.67-.6,2.55,2.55,0,0,0,.42-.84,3.08,3.08,0,0,0,.14-.95,3.17,3.17,0,0,0-.15-1,2.78,2.78,0,0,0-.43-.84,2.07,2.07,0,0,0-.68-.57,1.94,1.94,0,0,0-.91-.22,1.82,1.82,0,0,0-.92.23,2.27,2.27,0,0,0-.68.59,2.5,2.5,0,0,0-.42.83A3.14,3.14,0,0,0,186.83,11.14Z" transform="translate(0 -0.19)"></path>
	<path fill="#ffffff" d="M198.67,10.05v5h-1.51V7.25h1.17l4,5.11V7.26h1.52V15h-1.23Z" transform="translate(0 -0.19)"></path>
	<path fill="#ffffff" d="M213.45,9.29a1.78,1.78,0,0,0-.28-.21,3.63,3.63,0,0,0-.49-.26,4.65,4.65,0,0,0-.63-.21,2.72,2.72,0,0,0-.69-.09,1.55,1.55,0,0,0-.93.23.76.76,0,0,0-.31.65.65.65,0,0,0,.12.4.93.93,0,0,0,.33.28,3.11,3.11,0,0,0,.56.22l.77.21a9.64,9.64,0,0,1,1,.33,2.7,2.7,0,0,1,.79.43,1.89,1.89,0,0,1,.5.63,2.08,2.08,0,0,1,.18.91,2.25,2.25,0,0,1-.24,1.07,2.06,2.06,0,0,1-.63.71,2.48,2.48,0,0,1-.92.4,4.42,4.42,0,0,1-1.1.13,6,6,0,0,1-1.73-.26,5.45,5.45,0,0,1-1.53-.75l.67-1.3a2.39,2.39,0,0,0,.35.26,5.73,5.73,0,0,0,.61.31,4,4,0,0,0,.78.27,3.66,3.66,0,0,0,.88.11c.83,0,1.25-.27,1.25-.8a.67.67,0,0,0-.15-.44,1.17,1.17,0,0,0-.4-.3,3.59,3.59,0,0,0-.64-.24l-.83-.24a6.82,6.82,0,0,1-1-.33,2.69,2.69,0,0,1-.69-.42,1.54,1.54,0,0,1-.41-.57,2.06,2.06,0,0,1-.13-.78,2.52,2.52,0,0,1,.21-1.05,2.2,2.2,0,0,1,.61-.77,2.69,2.69,0,0,1,.91-.46,3.57,3.57,0,0,1,1.1-.16,4.37,4.37,0,0,1,1.52.25,6.11,6.11,0,0,1,1.2.61Z" transform="translate(0 -0.19)"></path>
</svg>
