<?xml version="1.0" encoding="UTF-8"?>
<svg width="710px" height="629px" viewBox="0 0 710 629" version="1.1" xmlns="http://www.w3.org/2000/svg" xmlns:xlink="http://www.w3.org/1999/xlink">
    <!-- Generator: Sketch 53 (72520) - https://sketchapp.com -->
    <title>V</title>
    <desc>Created with Sketch.</desc>
    <g id="Page-1" stroke="none" stroke-width="1" fill="none" fill-rule="evenodd" stroke-linecap="square">
        <g id="V" transform="translate(2.000000, 2.000000)" stroke="#000000">
            <path d="M0.5,0.5 L265.5,0.5" id="Line" stroke-width="5"></path>
            <path d="M440.5,0.5 L705.5,0.5" id="Line" stroke-width="5"></path>
            <path d="M63.5,2.75 L317.5,623.5" id="Line-2" stroke-width="5"></path>
            <path d="M234.5,2.75 L402.5,413.5" id="Line-2" stroke-width="5"></path>
            <path d="M318.5,2.75 L572.5,623.5" id="Line-2" stroke-width="5" transform="translate(445.500000, 313.000000) scale(1, -1) translate(-445.500000, -313.000000) "></path>
            <path d="M83.5,48.5 L249.5,48.5" id="Line-4" stroke-width="3"></path>
            <path d="M74.5,24.5 L240.5,24.5" id="Line-4" stroke-width="3"></path>
            <path d="M95.5,72.5 L261.5,72.5" id="Line-4" stroke-width="3"></path>
            <path d="M103.5,96.5 L269.5,96.5" id="Line-4" stroke-width="3"></path>
            <path d="M113.5,120.5 L279.5,120.5" id="Line-4" stroke-width="3"></path>
            <path d="M134.5,170.5 L300.5,170.5" id="Line-4" stroke-width="3"></path>
            <path d="M125.5,146.5 L291.5,146.5" id="Line-4" stroke-width="3"></path>
            <path d="M144.5,194.5 L312.5,194.5" id="Line-4" stroke-width="3"></path>
            <path d="M154.5,218.5 L320.5,218.5" id="Line-4" stroke-width="3"></path>
            <path d="M164.5,242.5 L330.5,242.5" id="Line-4" stroke-width="3"></path>
            <path d="M181.5,291.5 L349.5,291.5" id="Line-4" stroke-width="3"></path>
            <path d="M172.5,267.5 L340.5,267.5" id="Line-4" stroke-width="3"></path>
            <path d="M193.5,315.5 L359.5,315.5" id="Line-4" stroke-width="3"></path>
            <path d="M201.5,339.5 L369.5,339.5" id="Line-4" stroke-width="3"></path>
            <path d="M211.5,363.5 L379.5,363.5" id="Line-4" stroke-width="3"></path>
            <path d="M232.5,413.5 L400.5,413.5" id="Line-4" stroke-width="3"></path>
            <path d="M223.5,389.5 L389.5,389.5" id="Line-4" stroke-width="3"></path>
            <path d="M244.5,437.5 L393.5,437.5" id="Line-4" stroke-width="3"></path>
            <path d="M252.5,461.5 L384.5,461.5" id="Line-4" stroke-width="3"></path>
            <path d="M262.5,485.5 L375.5,485.5" id="Line-4" stroke-width="3"></path>
            <path d="M270.5,509.5 L364.5,509.5" id="Line-4" stroke-width="3"></path>
            <path d="M280.5,533.5 L354.5,533.5" id="Line-4" stroke-width="3"></path>
            <path d="M291.5,557.5 L344.5,557.5" id="Line-4" stroke-width="3"></path>
            <path d="M300.5,581.5 L335.5,581.5" id="Line-4" stroke-width="3"></path>
        </g>
    </g>
</svg>